ISO-10303-21;
HEADER;
/* Generated by software containing ST-Developer
 * from STEP Tools, Inc. (www.steptools.com) 
 */

FILE_DESCRIPTION(
/* description */ (''),
/* implementation_level */ '2;1');

FILE_NAME(
/* name */ 'BOTTOM.step',
/* time_stamp */ '2026-08-13T21:46:56-04:00',
/* author */ (''),
/* organization */ (''),
/* preprocessor_version */ 'ST-DEVELOPER v20.1',
/* originating_system */ 'Autodesk Translation Framework v15.8.0.0',
/* authorisation */ '');

FILE_SCHEMA (('AUTOMOTIVE_DESIGN { 1 0 10303 214 3 1 1 }'));
ENDSEC;

DATA;
#10=MECHANICAL_DESIGN_GEOMETRIC_PRESENTATION_REPRESENTATION('',(#13),#1001);
#11=SHAPE_REPRESENTATION_RELATIONSHIP('SRR','None',#1008,#12);
#12=ADVANCED_BREP_SHAPE_REPRESENTATION('',(#14),#1000);
#13=STYLED_ITEM('',(#1017),#14);
#14=MANIFOLD_SOLID_BREP('Body1',#489);
#15=SPHERICAL_SURFACE('',#512,5.);
#16=SPHERICAL_SURFACE('',#519,5.);
#17=SPHERICAL_SURFACE('',#528,5.);
#18=SPHERICAL_SURFACE('',#535,5.);
#19=B_SPLINE_CURVE_WITH_KNOTS('',3,(#703,#704,#705,#706,#707,#708,#709,
#710),.UNSPECIFIED.,.F.,.F.,(4,2,2,4),(0.21984749158393,0.274802256892659,
0.329757022201388,0.380211294991257),.UNSPECIFIED.);
#20=B_SPLINE_CURVE_WITH_KNOTS('',3,(#714,#715,#716,#717,#718,#719,#720,
#721),.UNSPECIFIED.,.F.,.F.,(4,2,2,4),(0.499178671344464,0.549632944134332,
0.604587709443061,0.65954247475179),.UNSPECIFIED.);
#21=B_SPLINE_CURVE_WITH_KNOTS('',3,(#725,#726,#727,#728,#729,#730,#731,
#732,#733,#734),.UNSPECIFIED.,.F.,.F.,(4,2,2,2,4),(0.219847491583929,0.274802256892658,
0.329757022201387,0.384726002684623,0.439694983167859),.UNSPECIFIED.);
#22=B_SPLINE_CURVE_WITH_KNOTS('',3,(#738,#739,#740,#741,#742,#743,#744,
#745,#746,#747),.UNSPECIFIED.,.F.,.F.,(4,2,2,2,4),(0.439694983167859,0.494663963651094,
0.54963294413433,0.604587709443059,0.659542474751788),.UNSPECIFIED.);
#23=B_SPLINE_CURVE_WITH_KNOTS('',3,(#761,#762,#763,#764,#765,#766,#767,
#768,#769,#770,#771,#772,#773,#774),.UNSPECIFIED.,.F.,.F.,(4,2,2,2,2,2,
4),(0.598344041319995,0.602955394371276,0.658019946173068,0.713110519194391,
0.768201092215713,0.822799630727362,0.877398169239011),.UNSPECIFIED.);
#24=B_SPLINE_CURVE_WITH_KNOTS('',3,(#777,#778,#779,#780,#781,#782,#783,
#784,#785,#786,#787,#788,#789,#790),.UNSPECIFIED.,.F.,.F.,(4,2,2,2,2,2,
4),(0.877398169239011,0.93199670775066,0.986595246262309,1.04168581928363,
1.09677639230495,1.15184094410675,1.15645229715803),.UNSPECIFIED.);
#25=B_SPLINE_CURVE_WITH_KNOTS('',3,(#794,#795,#796,#797,#798,#799,#800,
#801,#802,#803,#804,#805,#806,#807),.UNSPECIFIED.,.F.,.F.,(4,2,2,2,2,2,
4),(0.600997024690779,0.605841042531786,0.660464402390516,0.716654116881413,
0.772843831372309,0.827925810950995,0.883007790529682),.UNSPECIFIED.);
#26=B_SPLINE_CURVE_WITH_KNOTS('',3,(#811,#812,#813,#814,#815,#816,#817,
#818,#819,#820,#821,#822,#823,#824),.UNSPECIFIED.,.F.,.F.,(4,2,2,2,2,2,
4),(0.883007790529682,0.938089770108368,0.993171749687055,1.04936146417795,
1.10555117866885,1.16017453852758,1.16501855636858),.UNSPECIFIED.);
#27=B_SPLINE_CURVE_WITH_KNOTS('',3,(#829,#830,#831,#832,#833,#834,#835,
#836,#837,#838),.UNSPECIFIED.,.F.,.F.,(4,2,2,2,4),(0.659542474751791,0.714497240060521,
0.76945200536925,0.824420985852486,0.879389966335722),.UNSPECIFIED.);
#28=B_SPLINE_CURVE_WITH_KNOTS('',3,(#842,#843,#844,#845,#846,#847,#848,
#849,#850,#851),.UNSPECIFIED.,.F.,.F.,(4,2,2,2,4),(0.879389966335722,0.934358946818958,
0.989327927302194,1.04428269261092,1.09923745791965),.UNSPECIFIED.);
#29=B_SPLINE_CURVE_WITH_KNOTS('',3,(#863,#864,#865,#866,#867,#868,#869,
#870,#871,#872),.UNSPECIFIED.,.F.,.F.,(4,2,2,2,4),(0.879389966335717,0.934358946818953,
0.989327927302188,1.04428269261092,1.09923745791965),.UNSPECIFIED.);
#30=B_SPLINE_CURVE_WITH_KNOTS('',3,(#874,#875,#876,#877,#878,#879,#880,
#881,#882,#883),.UNSPECIFIED.,.F.,.F.,(4,2,2,2,4),(0.659542474751788,0.714497240060517,
0.769452005369246,0.824420985852481,0.879389966335717),.UNSPECIFIED.);
#31=B_SPLINE_CURVE_WITH_KNOTS('',3,(#889,#890,#891,#892,#893,#894,#895,
#896,#897,#898),.UNSPECIFIED.,.F.,.F.,(4,2,2,2,4),(0.659542474751787,0.714497240060516,
0.769452005369244,0.82442098585248,0.879389966335716),.UNSPECIFIED.);
#32=B_SPLINE_CURVE_WITH_KNOTS('',3,(#902,#903,#904,#905,#906,#907,#908,
#909,#910,#911),.UNSPECIFIED.,.F.,.F.,(4,2,2,2,4),(0.879389966335716,0.934358946818952,
0.989327927302188,1.04428269261092,1.09923745791964),.UNSPECIFIED.);
#33=B_SPLINE_CURVE_WITH_KNOTS('',3,(#921,#922,#923,#924,#925,#926,#927,
#928,#929,#930),.UNSPECIFIED.,.F.,.F.,(4,2,2,2,4),(0.659542474751787,0.714497240060516,
0.769452005369245,0.824420985852481,0.879389966335716),.UNSPECIFIED.);
#34=B_SPLINE_CURVE_WITH_KNOTS('',3,(#935,#936,#937,#938,#939,#940,#941,
#942,#943,#944),.UNSPECIFIED.,.F.,.F.,(4,2,2,2,4),(0.879389966335716,0.934358946818951,
0.989327927302186,1.04428269261092,1.09923745791964),.UNSPECIFIED.);
#35=B_SPLINE_CURVE_WITH_KNOTS('',3,(#957,#958,#959,#960,#961,#962,#963,
#964,#965,#966),.UNSPECIFIED.,.F.,.F.,(4,2,2,2,4),(0.659542474751791,0.714497240060521,
0.76945200536925,0.824420985852486,0.879389966335722),.UNSPECIFIED.);
#36=B_SPLINE_CURVE_WITH_KNOTS('',3,(#967,#968,#969,#970,#971,#972,#973,
#974,#975,#976),.UNSPECIFIED.,.F.,.F.,(4,2,2,2,4),(0.879389966335722,0.934358946818958,
0.989327927302194,1.04428269261092,1.09923745791965),.UNSPECIFIED.);
#37=CYLINDRICAL_SURFACE('',#508,5.);
#38=CYLINDRICAL_SURFACE('',#514,1.45);
#39=CYLINDRICAL_SURFACE('',#517,5.);
#40=CYLINDRICAL_SURFACE('',#523,1.45);
#41=CYLINDRICAL_SURFACE('',#526,5.);
#42=CYLINDRICAL_SURFACE('',#532,1.45);
#43=CYLINDRICAL_SURFACE('',#539,1.45);
#44=CYLINDRICAL_SURFACE('',#543,5.);
#45=CIRCLE('',#505,5.);
#46=CIRCLE('',#507,5.);
#47=CIRCLE('',#509,5.);
#48=CIRCLE('',#510,5.);
#49=CIRCLE('',#513,5.);
#50=CIRCLE('',#515,1.45);
#51=CIRCLE('',#516,1.45);
#52=CIRCLE('',#518,5.);
#53=CIRCLE('',#520,1.45);
#54=CIRCLE('',#521,5.);
#55=CIRCLE('',#522,1.45);
#56=CIRCLE('',#524,1.45);
#57=CIRCLE('',#525,1.45);
#58=CIRCLE('',#527,5.);
#59=CIRCLE('',#529,1.45);
#60=CIRCLE('',#530,1.45);
#61=CIRCLE('',#531,5.);
#62=CIRCLE('',#533,1.45);
#63=CIRCLE('',#534,1.45);
#64=CIRCLE('',#536,1.45);
#65=CIRCLE('',#537,1.45);
#66=CIRCLE('',#538,5.);
#67=CIRCLE('',#540,1.45);
#68=CIRCLE('',#541,1.45);
#69=FACE_OUTER_BOUND('',#91,.T.);
#70=FACE_OUTER_BOUND('',#92,.T.);
#71=FACE_OUTER_BOUND('',#93,.T.);
#72=FACE_OUTER_BOUND('',#94,.T.);
#73=FACE_OUTER_BOUND('',#95,.T.);
#74=FACE_OUTER_BOUND('',#96,.T.);
#75=FACE_OUTER_BOUND('',#97,.T.);
#76=FACE_OUTER_BOUND('',#98,.T.);
#77=FACE_OUTER_BOUND('',#99,.T.);
#78=FACE_OUTER_BOUND('',#100,.T.);
#79=FACE_OUTER_BOUND('',#101,.T.);
#80=FACE_OUTER_BOUND('',#102,.T.);
#81=FACE_OUTER_BOUND('',#103,.T.);
#82=FACE_OUTER_BOUND('',#104,.T.);
#83=FACE_OUTER_BOUND('',#105,.T.);
#84=FACE_OUTER_BOUND('',#106,.T.);
#85=FACE_OUTER_BOUND('',#107,.T.);
#86=FACE_OUTER_BOUND('',#108,.T.);
#87=FACE_OUTER_BOUND('',#109,.T.);
#88=FACE_OUTER_BOUND('',#110,.T.);
#89=FACE_OUTER_BOUND('',#111,.T.);
#90=FACE_OUTER_BOUND('',#112,.T.);
#91=EDGE_LOOP('',(#305,#306,#307,#308));
#92=EDGE_LOOP('',(#309,#310,#311,#312));
#93=EDGE_LOOP('',(#313,#314,#315,#316));
#94=EDGE_LOOP('',(#317,#318,#319,#320,#321,#322,#323,#324,#325,#326,#327,
#328));
#95=EDGE_LOOP('',(#329,#330,#331,#332,#333,#334,#335,#336));
#96=EDGE_LOOP('',(#337,#338,#339,#340));
#97=EDGE_LOOP('',(#341,#342,#343,#344,#345,#346,#347,#348,#349,#350));
#98=EDGE_LOOP('',(#351,#352,#353,#354,#355,#356,#357,#358));
#99=EDGE_LOOP('',(#359,#360,#361,#362));
#100=EDGE_LOOP('',(#363,#364,#365,#366,#367,#368,#369,#370,#371,#372));
#101=EDGE_LOOP('',(#373,#374,#375,#376,#377,#378,#379,#380));
#102=EDGE_LOOP('',(#381,#382,#383,#384));
#103=EDGE_LOOP('',(#385,#386,#387,#388,#389,#390,#391,#392,#393,#394));
#104=EDGE_LOOP('',(#395,#396,#397,#398));
#105=EDGE_LOOP('',(#399,#400,#401,#402,#403,#404,#405,#406,#407,#408));
#106=EDGE_LOOP('',(#409,#410,#411,#412,#413,#414,#415,#416,#417,#418,#419,
#420,#421,#422,#423,#424));
#107=EDGE_LOOP('',(#425,#426,#427,#428,#429,#430,#431,#432));
#108=EDGE_LOOP('',(#433,#434,#435,#436));
#109=EDGE_LOOP('',(#437,#438,#439,#440));
#110=EDGE_LOOP('',(#441,#442,#443,#444));
#111=EDGE_LOOP('',(#445,#446,#447,#448));
#112=EDGE_LOOP('',(#449,#450,#451,#452,#453,#454,#455,#456));
#113=LINE('',#681,#147);
#114=LINE('',#683,#148);
#115=LINE('',#685,#149);
#116=LINE('',#686,#150);
#117=LINE('',#691,#151);
#118=LINE('',#692,#152);
#119=LINE('',#697,#153);
#120=LINE('',#698,#154);
#121=LINE('',#701,#155);
#122=LINE('',#723,#156);
#123=LINE('',#748,#157);
#124=LINE('',#751,#158);
#125=LINE('',#753,#159);
#126=LINE('',#755,#160);
#127=LINE('',#757,#161);
#128=LINE('',#758,#162);
#129=LINE('',#792,#163);
#130=LINE('',#827,#164);
#131=LINE('',#852,#165);
#132=LINE('',#860,#166);
#133=LINE('',#887,#167);
#134=LINE('',#912,#168);
#135=LINE('',#932,#169);
#136=LINE('',#955,#170);
#137=LINE('',#978,#171);
#138=LINE('',#980,#172);
#139=LINE('',#982,#173);
#140=LINE('',#983,#174);
#141=LINE('',#985,#175);
#142=LINE('',#989,#176);
#143=LINE('',#990,#177);
#144=LINE('',#991,#178);
#145=LINE('',#993,#179);
#146=LINE('',#995,#180);
#147=VECTOR('',#553,10.);
#148=VECTOR('',#554,10.);
#149=VECTOR('',#555,10.);
#150=VECTOR('',#556,10.);
#151=VECTOR('',#561,10.);
#152=VECTOR('',#562,10.);
#153=VECTOR('',#567,10.);
#154=VECTOR('',#568,10.);
#155=VECTOR('',#571,10.);
#156=VECTOR('',#574,10.);
#157=VECTOR('',#577,10.);
#158=VECTOR('',#580,10.);
#159=VECTOR('',#581,10.);
#160=VECTOR('',#582,10.);
#161=VECTOR('',#583,10.);
#162=VECTOR('',#584,10.);
#163=VECTOR('',#591,1.45);
#164=VECTOR('',#598,10.);
#165=VECTOR('',#601,10.);
#166=VECTOR('',#612,1.45);
#167=VECTOR('',#619,10.);
#168=VECTOR('',#622,10.);
#169=VECTOR('',#635,1.45);
#170=VECTOR('',#650,1.45);
#171=VECTOR('',#655,10.);
#172=VECTOR('',#656,10.);
#173=VECTOR('',#657,10.);
#174=VECTOR('',#658,10.);
#175=VECTOR('',#661,10.);
#176=VECTOR('',#664,10.);
#177=VECTOR('',#665,10.);
#178=VECTOR('',#666,10.);
#179=VECTOR('',#669,10.);
#180=VECTOR('',#672,10.);
#181=VERTEX_POINT('',#679);
#182=VERTEX_POINT('',#680);
#183=VERTEX_POINT('',#682);
#184=VERTEX_POINT('',#684);
#185=VERTEX_POINT('',#688);
#186=VERTEX_POINT('',#690);
#187=VERTEX_POINT('',#694);
#188=VERTEX_POINT('',#696);
#189=VERTEX_POINT('',#700);
#190=VERTEX_POINT('',#702);
#191=VERTEX_POINT('',#711);
#192=VERTEX_POINT('',#713);
#193=VERTEX_POINT('',#722);
#194=VERTEX_POINT('',#724);
#195=VERTEX_POINT('',#735);
#196=VERTEX_POINT('',#737);
#197=VERTEX_POINT('',#750);
#198=VERTEX_POINT('',#752);
#199=VERTEX_POINT('',#754);
#200=VERTEX_POINT('',#756);
#201=VERTEX_POINT('',#760);
#202=VERTEX_POINT('',#775);
#203=VERTEX_POINT('',#793);
#204=VERTEX_POINT('',#809);
#205=VERTEX_POINT('',#826);
#206=VERTEX_POINT('',#828);
#207=VERTEX_POINT('',#839);
#208=VERTEX_POINT('',#841);
#209=VERTEX_POINT('',#854);
#210=VERTEX_POINT('',#856);
#211=VERTEX_POINT('',#861);
#212=VERTEX_POINT('',#873);
#213=VERTEX_POINT('',#886);
#214=VERTEX_POINT('',#888);
#215=VERTEX_POINT('',#899);
#216=VERTEX_POINT('',#901);
#217=VERTEX_POINT('',#914);
#218=VERTEX_POINT('',#916);
#219=VERTEX_POINT('',#920);
#220=VERTEX_POINT('',#933);
#221=VERTEX_POINT('',#946);
#222=VERTEX_POINT('',#948);
#223=VERTEX_POINT('',#952);
#224=VERTEX_POINT('',#954);
#225=VERTEX_POINT('',#979);
#226=VERTEX_POINT('',#981);
#227=VERTEX_POINT('',#987);
#228=VERTEX_POINT('',#988);
#229=EDGE_CURVE('',#181,#182,#113,.T.);
#230=EDGE_CURVE('',#183,#181,#114,.T.);
#231=EDGE_CURVE('',#184,#183,#115,.T.);
#232=EDGE_CURVE('',#184,#182,#116,.T.);
#233=EDGE_CURVE('',#182,#185,#45,.T.);
#234=EDGE_CURVE('',#186,#184,#117,.T.);
#235=EDGE_CURVE('',#185,#186,#118,.T.);
#236=EDGE_CURVE('',#187,#181,#46,.T.);
#237=EDGE_CURVE('',#188,#187,#119,.T.);
#238=EDGE_CURVE('',#183,#188,#120,.T.);
#239=EDGE_CURVE('',#185,#189,#121,.T.);
#240=EDGE_CURVE('',#189,#190,#19,.T.);
#241=EDGE_CURVE('',#191,#190,#47,.T.);
#242=EDGE_CURVE('',#191,#192,#20,.T.);
#243=EDGE_CURVE('',#192,#193,#122,.T.);
#244=EDGE_CURVE('',#193,#194,#21,.T.);
#245=EDGE_CURVE('',#195,#194,#48,.T.);
#246=EDGE_CURVE('',#195,#196,#22,.T.);
#247=EDGE_CURVE('',#196,#187,#123,.T.);
#248=EDGE_CURVE('',#197,#188,#124,.T.);
#249=EDGE_CURVE('',#198,#197,#125,.T.);
#250=EDGE_CURVE('',#198,#199,#126,.T.);
#251=EDGE_CURVE('',#199,#200,#127,.T.);
#252=EDGE_CURVE('',#186,#200,#128,.T.);
#253=EDGE_CURVE('',#190,#201,#23,.T.);
#254=EDGE_CURVE('',#201,#202,#49,.T.);
#255=EDGE_CURVE('',#202,#191,#24,.T.);
#256=EDGE_CURVE('',#189,#192,#129,.T.);
#257=EDGE_CURVE('',#203,#202,#25,.T.);
#258=EDGE_CURVE('',#203,#192,#50,.T.);
#259=EDGE_CURVE('',#204,#189,#51,.T.);
#260=EDGE_CURVE('',#201,#204,#26,.T.);
#261=EDGE_CURVE('',#204,#205,#130,.T.);
#262=EDGE_CURVE('',#205,#206,#27,.T.);
#263=EDGE_CURVE('',#207,#206,#52,.T.);
#264=EDGE_CURVE('',#207,#208,#28,.T.);
#265=EDGE_CURVE('',#208,#203,#131,.T.);
#266=EDGE_CURVE('',#194,#209,#53,.T.);
#267=EDGE_CURVE('',#209,#210,#54,.T.);
#268=EDGE_CURVE('',#210,#195,#55,.T.);
#269=EDGE_CURVE('',#210,#209,#132,.T.);
#270=EDGE_CURVE('',#193,#211,#56,.T.);
#271=EDGE_CURVE('',#209,#211,#29,.T.);
#272=EDGE_CURVE('',#212,#210,#30,.T.);
#273=EDGE_CURVE('',#196,#212,#57,.T.);
#274=EDGE_CURVE('',#211,#213,#133,.T.);
#275=EDGE_CURVE('',#213,#214,#31,.T.);
#276=EDGE_CURVE('',#215,#214,#58,.T.);
#277=EDGE_CURVE('',#215,#216,#32,.T.);
#278=EDGE_CURVE('',#216,#212,#134,.T.);
#279=EDGE_CURVE('',#217,#215,#59,.T.);
#280=EDGE_CURVE('',#214,#218,#60,.T.);
#281=EDGE_CURVE('',#218,#217,#61,.T.);
#282=EDGE_CURVE('',#219,#217,#33,.T.);
#283=EDGE_CURVE('',#216,#219,#62,.T.);
#284=EDGE_CURVE('',#215,#214,#135,.T.);
#285=EDGE_CURVE('',#213,#220,#63,.T.);
#286=EDGE_CURVE('',#218,#220,#34,.T.);
#287=EDGE_CURVE('',#221,#207,#64,.T.);
#288=EDGE_CURVE('',#206,#222,#65,.T.);
#289=EDGE_CURVE('',#222,#221,#66,.T.);
#290=EDGE_CURVE('',#223,#205,#67,.T.);
#291=EDGE_CURVE('',#223,#224,#136,.T.);
#292=EDGE_CURVE('',#224,#208,#68,.T.);
#293=EDGE_CURVE('',#224,#221,#35,.T.);
#294=EDGE_CURVE('',#222,#223,#36,.T.);
#295=EDGE_CURVE('',#223,#219,#137,.T.);
#296=EDGE_CURVE('',#200,#225,#138,.T.);
#297=EDGE_CURVE('',#225,#226,#139,.T.);
#298=EDGE_CURVE('',#226,#197,#140,.T.);
#299=EDGE_CURVE('',#220,#224,#141,.T.);
#300=EDGE_CURVE('',#227,#228,#142,.T.);
#301=EDGE_CURVE('',#199,#227,#143,.T.);
#302=EDGE_CURVE('',#228,#198,#144,.T.);
#303=EDGE_CURVE('',#227,#225,#145,.T.);
#304=EDGE_CURVE('',#228,#226,#146,.T.);
#305=ORIENTED_EDGE('',*,*,#229,.F.);
#306=ORIENTED_EDGE('',*,*,#230,.F.);
#307=ORIENTED_EDGE('',*,*,#231,.F.);
#308=ORIENTED_EDGE('',*,*,#232,.T.);
#309=ORIENTED_EDGE('',*,*,#233,.F.);
#310=ORIENTED_EDGE('',*,*,#232,.F.);
#311=ORIENTED_EDGE('',*,*,#234,.F.);
#312=ORIENTED_EDGE('',*,*,#235,.F.);
#313=ORIENTED_EDGE('',*,*,#236,.F.);
#314=ORIENTED_EDGE('',*,*,#237,.F.);
#315=ORIENTED_EDGE('',*,*,#238,.F.);
#316=ORIENTED_EDGE('',*,*,#230,.T.);
#317=ORIENTED_EDGE('',*,*,#236,.T.);
#318=ORIENTED_EDGE('',*,*,#229,.T.);
#319=ORIENTED_EDGE('',*,*,#233,.T.);
#320=ORIENTED_EDGE('',*,*,#239,.T.);
#321=ORIENTED_EDGE('',*,*,#240,.T.);
#322=ORIENTED_EDGE('',*,*,#241,.F.);
#323=ORIENTED_EDGE('',*,*,#242,.T.);
#324=ORIENTED_EDGE('',*,*,#243,.T.);
#325=ORIENTED_EDGE('',*,*,#244,.T.);
#326=ORIENTED_EDGE('',*,*,#245,.F.);
#327=ORIENTED_EDGE('',*,*,#246,.T.);
#328=ORIENTED_EDGE('',*,*,#247,.T.);
#329=ORIENTED_EDGE('',*,*,#234,.T.);
#330=ORIENTED_EDGE('',*,*,#231,.T.);
#331=ORIENTED_EDGE('',*,*,#238,.T.);
#332=ORIENTED_EDGE('',*,*,#248,.F.);
#333=ORIENTED_EDGE('',*,*,#249,.F.);
#334=ORIENTED_EDGE('',*,*,#250,.T.);
#335=ORIENTED_EDGE('',*,*,#251,.T.);
#336=ORIENTED_EDGE('',*,*,#252,.F.);
#337=ORIENTED_EDGE('',*,*,#253,.T.);
#338=ORIENTED_EDGE('',*,*,#254,.T.);
#339=ORIENTED_EDGE('',*,*,#255,.T.);
#340=ORIENTED_EDGE('',*,*,#241,.T.);
#341=ORIENTED_EDGE('',*,*,#253,.F.);
#342=ORIENTED_EDGE('',*,*,#240,.F.);
#343=ORIENTED_EDGE('',*,*,#256,.T.);
#344=ORIENTED_EDGE('',*,*,#242,.F.);
#345=ORIENTED_EDGE('',*,*,#255,.F.);
#346=ORIENTED_EDGE('',*,*,#257,.F.);
#347=ORIENTED_EDGE('',*,*,#258,.T.);
#348=ORIENTED_EDGE('',*,*,#256,.F.);
#349=ORIENTED_EDGE('',*,*,#259,.F.);
#350=ORIENTED_EDGE('',*,*,#260,.F.);
#351=ORIENTED_EDGE('',*,*,#254,.F.);
#352=ORIENTED_EDGE('',*,*,#260,.T.);
#353=ORIENTED_EDGE('',*,*,#261,.T.);
#354=ORIENTED_EDGE('',*,*,#262,.T.);
#355=ORIENTED_EDGE('',*,*,#263,.F.);
#356=ORIENTED_EDGE('',*,*,#264,.T.);
#357=ORIENTED_EDGE('',*,*,#265,.T.);
#358=ORIENTED_EDGE('',*,*,#257,.T.);
#359=ORIENTED_EDGE('',*,*,#266,.T.);
#360=ORIENTED_EDGE('',*,*,#267,.T.);
#361=ORIENTED_EDGE('',*,*,#268,.T.);
#362=ORIENTED_EDGE('',*,*,#245,.T.);
#363=ORIENTED_EDGE('',*,*,#268,.F.);
#364=ORIENTED_EDGE('',*,*,#269,.T.);
#365=ORIENTED_EDGE('',*,*,#266,.F.);
#366=ORIENTED_EDGE('',*,*,#244,.F.);
#367=ORIENTED_EDGE('',*,*,#270,.T.);
#368=ORIENTED_EDGE('',*,*,#271,.F.);
#369=ORIENTED_EDGE('',*,*,#269,.F.);
#370=ORIENTED_EDGE('',*,*,#272,.F.);
#371=ORIENTED_EDGE('',*,*,#273,.F.);
#372=ORIENTED_EDGE('',*,*,#246,.F.);
#373=ORIENTED_EDGE('',*,*,#267,.F.);
#374=ORIENTED_EDGE('',*,*,#271,.T.);
#375=ORIENTED_EDGE('',*,*,#274,.T.);
#376=ORIENTED_EDGE('',*,*,#275,.T.);
#377=ORIENTED_EDGE('',*,*,#276,.F.);
#378=ORIENTED_EDGE('',*,*,#277,.T.);
#379=ORIENTED_EDGE('',*,*,#278,.T.);
#380=ORIENTED_EDGE('',*,*,#272,.T.);
#381=ORIENTED_EDGE('',*,*,#279,.T.);
#382=ORIENTED_EDGE('',*,*,#276,.T.);
#383=ORIENTED_EDGE('',*,*,#280,.T.);
#384=ORIENTED_EDGE('',*,*,#281,.T.);
#385=ORIENTED_EDGE('',*,*,#279,.F.);
#386=ORIENTED_EDGE('',*,*,#282,.F.);
#387=ORIENTED_EDGE('',*,*,#283,.F.);
#388=ORIENTED_EDGE('',*,*,#277,.F.);
#389=ORIENTED_EDGE('',*,*,#284,.T.);
#390=ORIENTED_EDGE('',*,*,#275,.F.);
#391=ORIENTED_EDGE('',*,*,#285,.T.);
#392=ORIENTED_EDGE('',*,*,#286,.F.);
#393=ORIENTED_EDGE('',*,*,#280,.F.);
#394=ORIENTED_EDGE('',*,*,#284,.F.);
#395=ORIENTED_EDGE('',*,*,#287,.T.);
#396=ORIENTED_EDGE('',*,*,#263,.T.);
#397=ORIENTED_EDGE('',*,*,#288,.T.);
#398=ORIENTED_EDGE('',*,*,#289,.T.);
#399=ORIENTED_EDGE('',*,*,#288,.F.);
#400=ORIENTED_EDGE('',*,*,#262,.F.);
#401=ORIENTED_EDGE('',*,*,#290,.F.);
#402=ORIENTED_EDGE('',*,*,#291,.T.);
#403=ORIENTED_EDGE('',*,*,#292,.T.);
#404=ORIENTED_EDGE('',*,*,#264,.F.);
#405=ORIENTED_EDGE('',*,*,#287,.F.);
#406=ORIENTED_EDGE('',*,*,#293,.F.);
#407=ORIENTED_EDGE('',*,*,#291,.F.);
#408=ORIENTED_EDGE('',*,*,#294,.F.);
#409=ORIENTED_EDGE('',*,*,#237,.T.);
#410=ORIENTED_EDGE('',*,*,#247,.F.);
#411=ORIENTED_EDGE('',*,*,#273,.T.);
#412=ORIENTED_EDGE('',*,*,#278,.F.);
#413=ORIENTED_EDGE('',*,*,#283,.T.);
#414=ORIENTED_EDGE('',*,*,#295,.F.);
#415=ORIENTED_EDGE('',*,*,#290,.T.);
#416=ORIENTED_EDGE('',*,*,#261,.F.);
#417=ORIENTED_EDGE('',*,*,#259,.T.);
#418=ORIENTED_EDGE('',*,*,#239,.F.);
#419=ORIENTED_EDGE('',*,*,#235,.T.);
#420=ORIENTED_EDGE('',*,*,#252,.T.);
#421=ORIENTED_EDGE('',*,*,#296,.T.);
#422=ORIENTED_EDGE('',*,*,#297,.T.);
#423=ORIENTED_EDGE('',*,*,#298,.T.);
#424=ORIENTED_EDGE('',*,*,#248,.T.);
#425=ORIENTED_EDGE('',*,*,#281,.F.);
#426=ORIENTED_EDGE('',*,*,#286,.T.);
#427=ORIENTED_EDGE('',*,*,#299,.T.);
#428=ORIENTED_EDGE('',*,*,#293,.T.);
#429=ORIENTED_EDGE('',*,*,#289,.F.);
#430=ORIENTED_EDGE('',*,*,#294,.T.);
#431=ORIENTED_EDGE('',*,*,#295,.T.);
#432=ORIENTED_EDGE('',*,*,#282,.T.);
#433=ORIENTED_EDGE('',*,*,#300,.F.);
#434=ORIENTED_EDGE('',*,*,#301,.F.);
#435=ORIENTED_EDGE('',*,*,#250,.F.);
#436=ORIENTED_EDGE('',*,*,#302,.F.);
#437=ORIENTED_EDGE('',*,*,#301,.T.);
#438=ORIENTED_EDGE('',*,*,#303,.T.);
#439=ORIENTED_EDGE('',*,*,#296,.F.);
#440=ORIENTED_EDGE('',*,*,#251,.F.);
#441=ORIENTED_EDGE('',*,*,#302,.T.);
#442=ORIENTED_EDGE('',*,*,#249,.T.);
#443=ORIENTED_EDGE('',*,*,#298,.F.);
#444=ORIENTED_EDGE('',*,*,#304,.F.);
#445=ORIENTED_EDGE('',*,*,#300,.T.);
#446=ORIENTED_EDGE('',*,*,#304,.T.);
#447=ORIENTED_EDGE('',*,*,#297,.F.);
#448=ORIENTED_EDGE('',*,*,#303,.F.);
#449=ORIENTED_EDGE('',*,*,#274,.F.);
#450=ORIENTED_EDGE('',*,*,#270,.F.);
#451=ORIENTED_EDGE('',*,*,#243,.F.);
#452=ORIENTED_EDGE('',*,*,#258,.F.);
#453=ORIENTED_EDGE('',*,*,#265,.F.);
#454=ORIENTED_EDGE('',*,*,#292,.F.);
#455=ORIENTED_EDGE('',*,*,#299,.F.);
#456=ORIENTED_EDGE('',*,*,#285,.F.);
#457=PLANE('',#503);
#458=PLANE('',#504);
#459=PLANE('',#506);
#460=PLANE('',#511);
#461=PLANE('',#542);
#462=PLANE('',#544);
#463=PLANE('',#545);
#464=PLANE('',#546);
#465=PLANE('',#547);
#466=PLANE('',#548);
#467=ADVANCED_FACE('',(#69),#457,.F.);
#468=ADVANCED_FACE('',(#70),#458,.F.);
#469=ADVANCED_FACE('',(#71),#459,.F.);
#470=ADVANCED_FACE('',(#72),#37,.T.);
#471=ADVANCED_FACE('',(#73),#460,.T.);
#472=ADVANCED_FACE('',(#74),#15,.T.);
#473=ADVANCED_FACE('',(#75),#38,.F.);
#474=ADVANCED_FACE('',(#76),#39,.T.);
#475=ADVANCED_FACE('',(#77),#16,.T.);
#476=ADVANCED_FACE('',(#78),#40,.F.);
#477=ADVANCED_FACE('',(#79),#41,.T.);
#478=ADVANCED_FACE('',(#80),#17,.T.);
#479=ADVANCED_FACE('',(#81),#42,.F.);
#480=ADVANCED_FACE('',(#82),#18,.T.);
#481=ADVANCED_FACE('',(#83),#43,.F.);
#482=ADVANCED_FACE('',(#84),#461,.T.);
#483=ADVANCED_FACE('',(#85),#44,.T.);
#484=ADVANCED_FACE('',(#86),#462,.T.);
#485=ADVANCED_FACE('',(#87),#463,.T.);
#486=ADVANCED_FACE('',(#88),#464,.T.);
#487=ADVANCED_FACE('',(#89),#465,.T.);
#488=ADVANCED_FACE('',(#90),#466,.F.);
#489=CLOSED_SHELL('',(#467,#468,#469,#470,#471,#472,#473,#474,#475,#476,
#477,#478,#479,#480,#481,#482,#483,#484,#485,#486,#487,#488));
#490=DERIVED_UNIT_ELEMENT(#492,1.);
#491=DERIVED_UNIT_ELEMENT(#1003,-3.);
#492=(
MASS_UNIT()
NAMED_UNIT(*)
SI_UNIT(.KILO.,.GRAM.)
);
#493=DERIVED_UNIT((#490,#491));
#494=MEASURE_REPRESENTATION_ITEM('density measure',
POSITIVE_RATIO_MEASURE(7850.),#493);
#495=PROPERTY_DEFINITION_REPRESENTATION(#500,#497);
#496=PROPERTY_DEFINITION_REPRESENTATION(#501,#498);
#497=REPRESENTATION('material name',(#499),#1000);
#498=REPRESENTATION('density',(#494),#1000);
#499=DESCRIPTIVE_REPRESENTATION_ITEM('Steel','Steel');
#500=PROPERTY_DEFINITION('material property','material name',#1010);
#501=PROPERTY_DEFINITION('material property','density of part',#1010);
#502=AXIS2_PLACEMENT_3D('',#677,#549,#550);
#503=AXIS2_PLACEMENT_3D('',#678,#551,#552);
#504=AXIS2_PLACEMENT_3D('',#687,#557,#558);
#505=AXIS2_PLACEMENT_3D('',#689,#559,#560);
#506=AXIS2_PLACEMENT_3D('',#693,#563,#564);
#507=AXIS2_PLACEMENT_3D('',#695,#565,#566);
#508=AXIS2_PLACEMENT_3D('',#699,#569,#570);
#509=AXIS2_PLACEMENT_3D('',#712,#572,#573);
#510=AXIS2_PLACEMENT_3D('',#736,#575,#576);
#511=AXIS2_PLACEMENT_3D('',#749,#578,#579);
#512=AXIS2_PLACEMENT_3D('',#759,#585,#586);
#513=AXIS2_PLACEMENT_3D('',#776,#587,#588);
#514=AXIS2_PLACEMENT_3D('',#791,#589,#590);
#515=AXIS2_PLACEMENT_3D('',#808,#592,#593);
#516=AXIS2_PLACEMENT_3D('',#810,#594,#595);
#517=AXIS2_PLACEMENT_3D('',#825,#596,#597);
#518=AXIS2_PLACEMENT_3D('',#840,#599,#600);
#519=AXIS2_PLACEMENT_3D('',#853,#602,#603);
#520=AXIS2_PLACEMENT_3D('',#855,#604,#605);
#521=AXIS2_PLACEMENT_3D('',#857,#606,#607);
#522=AXIS2_PLACEMENT_3D('',#858,#608,#609);
#523=AXIS2_PLACEMENT_3D('',#859,#610,#611);
#524=AXIS2_PLACEMENT_3D('',#862,#613,#614);
#525=AXIS2_PLACEMENT_3D('',#884,#615,#616);
#526=AXIS2_PLACEMENT_3D('',#885,#617,#618);
#527=AXIS2_PLACEMENT_3D('',#900,#620,#621);
#528=AXIS2_PLACEMENT_3D('',#913,#623,#624);
#529=AXIS2_PLACEMENT_3D('',#915,#625,#626);
#530=AXIS2_PLACEMENT_3D('',#917,#627,#628);
#531=AXIS2_PLACEMENT_3D('',#918,#629,#630);
#532=AXIS2_PLACEMENT_3D('',#919,#631,#632);
#533=AXIS2_PLACEMENT_3D('',#931,#633,#634);
#534=AXIS2_PLACEMENT_3D('',#934,#636,#637);
#535=AXIS2_PLACEMENT_3D('',#945,#638,#639);
#536=AXIS2_PLACEMENT_3D('',#947,#640,#641);
#537=AXIS2_PLACEMENT_3D('',#949,#642,#643);
#538=AXIS2_PLACEMENT_3D('',#950,#644,#645);
#539=AXIS2_PLACEMENT_3D('',#951,#646,#647);
#540=AXIS2_PLACEMENT_3D('',#953,#648,#649);
#541=AXIS2_PLACEMENT_3D('',#956,#651,#652);
#542=AXIS2_PLACEMENT_3D('',#977,#653,#654);
#543=AXIS2_PLACEMENT_3D('',#984,#659,#660);
#544=AXIS2_PLACEMENT_3D('',#986,#662,#663);
#545=AXIS2_PLACEMENT_3D('',#992,#667,#668);
#546=AXIS2_PLACEMENT_3D('',#994,#670,#671);
#547=AXIS2_PLACEMENT_3D('',#996,#673,#674);
#548=AXIS2_PLACEMENT_3D('',#997,#675,#676);
#549=DIRECTION('axis',(0.,0.,1.));
#550=DIRECTION('refdir',(1.,0.,0.));
#551=DIRECTION('center_axis',(0.,-1.,0.));
#552=DIRECTION('ref_axis',(-1.,0.,0.));
#553=DIRECTION('',(1.,0.,0.));
#554=DIRECTION('',(0.,0.,-1.));
#555=DIRECTION('',(-1.,0.,-2.07507603435662E-33));
#556=DIRECTION('',(0.,0.,-1.));
#557=DIRECTION('center_axis',(1.,0.,0.));
#558=DIRECTION('ref_axis',(0.,-1.,0.));
#559=DIRECTION('center_axis',(1.,0.,0.));
#560=DIRECTION('ref_axis',(0.,-1.,0.));
#561=DIRECTION('',(0.,-1.,0.));
#562=DIRECTION('',(0.,0.,1.));
#563=DIRECTION('center_axis',(-1.,0.,0.));
#564=DIRECTION('ref_axis',(0.,1.,0.));
#565=DIRECTION('center_axis',(-1.,0.,0.));
#566=DIRECTION('ref_axis',(0.,-1.,0.));
#567=DIRECTION('',(0.,0.,-1.));
#568=DIRECTION('',(0.,1.,0.));
#569=DIRECTION('center_axis',(1.,0.,0.));
#570=DIRECTION('ref_axis',(0.,-1.,0.));
#571=DIRECTION('',(1.,0.,0.));
#572=DIRECTION('center_axis',(1.,0.,0.));
#573=DIRECTION('ref_axis',(0.,-1.,0.));
#574=DIRECTION('',(-1.,0.,0.));
#575=DIRECTION('center_axis',(-1.,0.,0.));
#576=DIRECTION('ref_axis',(0.,-1.,0.));
#577=DIRECTION('',(1.,0.,0.));
#578=DIRECTION('center_axis',(-2.07507603435662E-33,0.,1.));
#579=DIRECTION('ref_axis',(1.,0.,2.07507603435662E-33));
#580=DIRECTION('',(1.,0.,2.07507603435662E-33));
#581=DIRECTION('',(0.,1.,0.));
#582=DIRECTION('',(1.,0.,2.07507603435662E-33));
#583=DIRECTION('',(0.,1.,0.));
#584=DIRECTION('',(1.,0.,2.07507603435662E-33));
#585=DIRECTION('center_axis',(-0.541390292005177,0.,-0.840771402773994));
#586=DIRECTION('ref_axis',(0.840771402773994,0.,-0.541390292005177));
#587=DIRECTION('center_axis',(0.,0.,-1.));
#588=DIRECTION('ref_axis',(0.,1.,0.));
#589=DIRECTION('center_axis',(0.,1.,0.));
#590=DIRECTION('ref_axis',(1.,0.,0.));
#591=DIRECTION('',(0.,-1.,0.));
#592=DIRECTION('center_axis',(0.,-1.,0.));
#593=DIRECTION('ref_axis',(1.,0.,0.));
#594=DIRECTION('center_axis',(0.,-1.,0.));
#595=DIRECTION('ref_axis',(1.,0.,0.));
#596=DIRECTION('center_axis',(0.,0.,-1.));
#597=DIRECTION('ref_axis',(0.,1.,0.));
#598=DIRECTION('',(0.,0.,1.));
#599=DIRECTION('center_axis',(0.,0.,1.));
#600=DIRECTION('ref_axis',(0.,1.,0.));
#601=DIRECTION('',(0.,0.,-1.));
#602=DIRECTION('center_axis',(0.,-1.,0.));
#603=DIRECTION('ref_axis',(-0.707106781186548,0.,-0.707106781186548));
#604=DIRECTION('center_axis',(0.,1.,0.));
#605=DIRECTION('ref_axis',(1.,0.,0.));
#606=DIRECTION('center_axis',(0.,0.,-1.));
#607=DIRECTION('ref_axis',(0.,1.,0.));
#608=DIRECTION('center_axis',(0.,-1.,0.));
#609=DIRECTION('ref_axis',(1.,0.,0.));
#610=DIRECTION('center_axis',(0.,1.,0.));
#611=DIRECTION('ref_axis',(1.,0.,0.));
#612=DIRECTION('',(0.,-1.,0.));
#613=DIRECTION('center_axis',(0.,-1.,0.));
#614=DIRECTION('ref_axis',(1.,0.,0.));
#615=DIRECTION('center_axis',(0.,-1.,0.));
#616=DIRECTION('ref_axis',(1.,0.,0.));
#617=DIRECTION('center_axis',(0.,0.,1.));
#618=DIRECTION('ref_axis',(0.,1.,0.));
#619=DIRECTION('',(0.,0.,1.));
#620=DIRECTION('center_axis',(0.,0.,1.));
#621=DIRECTION('ref_axis',(0.,1.,0.));
#622=DIRECTION('',(0.,0.,-1.));
#623=DIRECTION('center_axis',(-0.707106781186545,0.,-0.70710678118655));
#624=DIRECTION('ref_axis',(-0.70710678118655,0.,0.707106781186545));
#625=DIRECTION('center_axis',(0.,-1.,0.));
#626=DIRECTION('ref_axis',(1.,0.,0.));
#627=DIRECTION('center_axis',(0.,1.,0.));
#628=DIRECTION('ref_axis',(1.,0.,0.));
#629=DIRECTION('center_axis',(-1.,0.,0.));
#630=DIRECTION('ref_axis',(0.,1.,0.));
#631=DIRECTION('center_axis',(0.,1.,0.));
#632=DIRECTION('ref_axis',(1.,0.,0.));
#633=DIRECTION('center_axis',(0.,-1.,0.));
#634=DIRECTION('ref_axis',(1.,0.,0.));
#635=DIRECTION('',(0.,-1.,0.));
#636=DIRECTION('center_axis',(0.,-1.,0.));
#637=DIRECTION('ref_axis',(1.,0.,0.));
#638=DIRECTION('center_axis',(0.707106781186545,-3.5527136788005E-16,-0.70710678118655));
#639=DIRECTION('ref_axis',(0.70710678118655,-3.5527136788005E-16,0.707106781186545));
#640=DIRECTION('center_axis',(0.,1.,0.));
#641=DIRECTION('ref_axis',(1.,0.,0.));
#642=DIRECTION('center_axis',(0.,-1.,0.));
#643=DIRECTION('ref_axis',(1.,0.,0.));
#644=DIRECTION('center_axis',(1.,0.,0.));
#645=DIRECTION('ref_axis',(0.,1.,0.));
#646=DIRECTION('center_axis',(0.,1.,0.));
#647=DIRECTION('ref_axis',(1.,0.,0.));
#648=DIRECTION('center_axis',(0.,-1.,0.));
#649=DIRECTION('ref_axis',(1.,0.,0.));
#650=DIRECTION('',(0.,-1.,0.));
#651=DIRECTION('center_axis',(0.,-1.,0.));
#652=DIRECTION('ref_axis',(1.,0.,0.));
#653=DIRECTION('center_axis',(0.,1.,0.));
#654=DIRECTION('ref_axis',(1.,0.,0.));
#655=DIRECTION('',(-1.,0.,0.));
#656=DIRECTION('',(0.,0.,1.));
#657=DIRECTION('',(-1.,0.,0.));
#658=DIRECTION('',(0.,0.,-1.));
#659=DIRECTION('center_axis',(1.,0.,0.));
#660=DIRECTION('ref_axis',(0.,1.,0.));
#661=DIRECTION('',(1.,0.,0.));
#662=DIRECTION('center_axis',(0.,1.,0.));
#663=DIRECTION('ref_axis',(0.,0.,1.));
#664=DIRECTION('',(-1.,0.,0.));
#665=DIRECTION('',(0.,0.,1.));
#666=DIRECTION('',(0.,0.,-1.));
#667=DIRECTION('center_axis',(-1.,0.,0.));
#668=DIRECTION('ref_axis',(0.,0.,1.));
#669=DIRECTION('',(0.,1.,0.));
#670=DIRECTION('center_axis',(1.,0.,0.));
#671=DIRECTION('ref_axis',(0.,0.,-1.));
#672=DIRECTION('',(0.,1.,0.));
#673=DIRECTION('center_axis',(0.,0.,-1.));
#674=DIRECTION('ref_axis',(-1.,0.,0.));
#675=DIRECTION('center_axis',(0.,1.,0.));
#676=DIRECTION('ref_axis',(1.,0.,0.));
#677=CARTESIAN_POINT('',(0.,0.,0.));
#678=CARTESIAN_POINT('Origin',(55.0000008195639,6.00000008940697,0.));
#679=CARTESIAN_POINT('',(43.0000006407499,6.00000008940697,-9.89897946731623));
#680=CARTESIAN_POINT('',(55.0000008195639,6.00000008940697,-9.89897946731623));
#681=CARTESIAN_POINT('',(49.55,6.00000008940697,-9.89897946731623));
#682=CARTESIAN_POINT('',(43.0000006407499,6.00000008940697,0.));
#683=CARTESIAN_POINT('',(43.0000006407499,6.00000008940697,0.));
#684=CARTESIAN_POINT('',(55.0000008195639,6.00000008940697,0.));
#685=CARTESIAN_POINT('',(27.5000004097819,6.00000008940697,5.70645917951357E-32));
#686=CARTESIAN_POINT('',(55.0000008195639,6.00000008940697,0.));
#687=CARTESIAN_POINT('Origin',(55.0000008195639,10.0000001490116,0.));
#688=CARTESIAN_POINT('',(55.0000008195639,10.0000001490116,-5.));
#689=CARTESIAN_POINT('Origin',(55.0000008195639,5.,-5.));
#690=CARTESIAN_POINT('',(55.0000008195639,10.0000001490116,0.));
#691=CARTESIAN_POINT('',(55.0000008195639,5.00000007450581,1.14129183590271E-31));
#692=CARTESIAN_POINT('',(55.0000008195639,10.,20.5625));
#693=CARTESIAN_POINT('Origin',(43.0000006407499,6.00000008940697,0.));
#694=CARTESIAN_POINT('',(43.0000006407499,10.0000001490116,-5.));
#695=CARTESIAN_POINT('Origin',(43.0000006407499,5.,-5.));
#696=CARTESIAN_POINT('',(43.0000006407499,10.0000001490116,0.));
#697=CARTESIAN_POINT('',(43.0000006407499,10.,20.5625));
#698=CARTESIAN_POINT('',(43.0000006407499,3.00000004470348,8.92282708069394E-32));
#699=CARTESIAN_POINT('Origin',(49.55,5.,-5.));
#700=CARTESIAN_POINT('',(63.55,10.,-5.));
#701=CARTESIAN_POINT('',(49.55,10.,-5.));
#702=CARTESIAN_POINT('',(64.400000000019,9.82260303155404,-6.32003787826174));
#703=CARTESIAN_POINT('Ctrl Pts',(63.55,10.,-5.));
#704=CARTESIAN_POINT('Ctrl Pts',(63.55,10.,-5.1831825510291));
#705=CARTESIAN_POINT('Ctrl Pts',(63.5868235185393,9.98893456480913,-5.3778695302204));
#706=CARTESIAN_POINT('Ctrl Pts',(63.7351337644947,9.94896827200179,-5.73482414105916));
#707=CARTESIAN_POINT('Ctrl Pts',(63.8465640169581,9.92059118794981,-5.8971736823991));
#708=CARTESIAN_POINT('Ctrl Pts',(64.092333082297,9.86909930219094,-6.14294274773801));
#709=CARTESIAN_POINT('Ctrl Pts',(64.238647670429,9.84267754258644,-6.24669801479521));
#710=CARTESIAN_POINT('Ctrl Pts',(64.4000000000225,9.82260303155598,-6.32003787825465));
#711=CARTESIAN_POINT('',(64.400000000019,0.177396968445956,-6.32003787826173));
#712=CARTESIAN_POINT('Origin',(64.4,5.,-5.));
#713=CARTESIAN_POINT('',(63.55,0.,-5.));
#714=CARTESIAN_POINT('Ctrl Pts',(64.4000000000225,0.177396968444017,-6.32003787825465));
#715=CARTESIAN_POINT('Ctrl Pts',(64.238647670429,0.157322457413562,-6.24669801479522));
#716=CARTESIAN_POINT('Ctrl Pts',(64.092333082297,0.130900697809065,-6.14294274773801));
#717=CARTESIAN_POINT('Ctrl Pts',(63.8465640169581,0.0794088120501939,-5.8971736823991));
#718=CARTESIAN_POINT('Ctrl Pts',(63.7351337644947,0.05103172799821,-5.73482414105916));
#719=CARTESIAN_POINT('Ctrl Pts',(63.5868235185393,0.0110654351908762,-5.3778695302204));
#720=CARTESIAN_POINT('Ctrl Pts',(63.55,-6.29978566454585E-18,-5.1831825510291));
#721=CARTESIAN_POINT('Ctrl Pts',(63.55,-1.13841228110978E-17,-5.));
#722=CARTESIAN_POINT('',(-3.55,0.,-5.));
#723=CARTESIAN_POINT('',(49.55,0.,-5.));
#724=CARTESIAN_POINT('',(-5.,0.21486677301457,-6.45));
#725=CARTESIAN_POINT('Ctrl Pts',(-3.55,1.32272665043232E-16,-5.));
#726=CARTESIAN_POINT('Ctrl Pts',(-3.55,1.31001580756594E-16,-5.1831825510291));
#727=CARTESIAN_POINT('Ctrl Pts',(-3.58682351853935,0.0110654351908766,-5.37786953022041));
#728=CARTESIAN_POINT('Ctrl Pts',(-3.73513376449469,0.0510317279982101,-5.73482414105916));
#729=CARTESIAN_POINT('Ctrl Pts',(-3.8465640169581,0.0794088120501935,-5.8971736823991));
#730=CARTESIAN_POINT('Ctrl Pts',(-4.10285946134469,0.133106114127959,-6.15346912678569));
#731=CARTESIAN_POINT('Ctrl Pts',(-4.26519546192212,0.162023480953512,-6.26487367433666));
#732=CARTESIAN_POINT('Ctrl Pts',(-4.62210111619179,0.20324201802994,-6.41316499135199));
#733=CARTESIAN_POINT('Ctrl Pts',(-4.81677006505588,0.21486677301457,-6.45));
#734=CARTESIAN_POINT('Ctrl Pts',(-5.,0.21486677301457,-6.45));
#735=CARTESIAN_POINT('',(-5.,9.78513322698543,-6.45));
#736=CARTESIAN_POINT('Origin',(-5.,5.,-5.));
#737=CARTESIAN_POINT('',(-3.55,10.,-5.));
#738=CARTESIAN_POINT('Ctrl Pts',(-5.,9.78513322698543,-6.45));
#739=CARTESIAN_POINT('Ctrl Pts',(-4.81677006505588,9.78513322698543,-6.45));
#740=CARTESIAN_POINT('Ctrl Pts',(-4.62210111619179,9.79675798197006,-6.41316499135199));
#741=CARTESIAN_POINT('Ctrl Pts',(-4.26519546192212,9.83797651904649,-6.26487367433666));
#742=CARTESIAN_POINT('Ctrl Pts',(-4.1028594613447,9.86689388587204,-6.15346912678569));
#743=CARTESIAN_POINT('Ctrl Pts',(-3.8465640169581,9.92059118794981,-5.8971736823991));
#744=CARTESIAN_POINT('Ctrl Pts',(-3.73513376449469,9.94896827200179,-5.73482414105916));
#745=CARTESIAN_POINT('Ctrl Pts',(-3.58682351853935,9.98893456480912,-5.37786953022041));
#746=CARTESIAN_POINT('Ctrl Pts',(-3.55,10.,-5.1831825510291));
#747=CARTESIAN_POINT('Ctrl Pts',(-3.55,10.,-5.));
#748=CARTESIAN_POINT('',(49.55,10.,-5.));
#749=CARTESIAN_POINT('Origin',(0.,0.,0.));
#750=CARTESIAN_POINT('',(0.,10.,0.));
#751=CARTESIAN_POINT('',(0.,10.,0.));
#752=CARTESIAN_POINT('',(0.,3.,0.));
#753=CARTESIAN_POINT('',(0.,0.,0.));
#754=CARTESIAN_POINT('',(59.4,3.,0.));
#755=CARTESIAN_POINT('',(14.85,3.,0.));
#756=CARTESIAN_POINT('',(59.4,10.,0.));
#757=CARTESIAN_POINT('',(59.4,0.,1.23259516440783E-31));
#758=CARTESIAN_POINT('',(0.,10.,0.));
#759=CARTESIAN_POINT('Origin',(64.4,5.,-5.));
#760=CARTESIAN_POINT('',(66.45,9.56042761152943,-5.));
#761=CARTESIAN_POINT('Ctrl Pts',(64.4000000000225,9.82260303155598,-6.32003787825465));
#762=CARTESIAN_POINT('Ctrl Pts',(64.4147637178265,9.82076621632893,-6.32674846650971));
#763=CARTESIAN_POINT('Ctrl Pts',(64.4296437875781,9.81891387406274,-6.33321299008068));
#764=CARTESIAN_POINT('Ctrl Pts',(64.6235358965006,9.79476315027059,-6.4136075180406));
#765=CARTESIAN_POINT('Ctrl Pts',(64.8179001072834,9.77038253753193,-6.45));
#766=CARTESIAN_POINT('Ctrl Pts',(65.1821859455606,9.72434196996658,-6.45));
#767=CARTESIAN_POINT('Ctrl Pts',(65.3765901231144,9.69958707047218,-6.41357678917414));
#768=CARTESIAN_POINT('Ctrl Pts',(65.7344306049823,9.65367707914811,-6.26516040244062));
#769=CARTESIAN_POINT('Ctrl Pts',(65.8978651527694,9.63253099593674,-6.15316020501251));
#770=CARTESIAN_POINT('Ctrl Pts',(66.1549062277949,9.5991182992385,-5.89528611516516));
#771=CARTESIAN_POINT('Ctrl Pts',(66.2660816452424,9.58457147151739,-5.73265189504448));
#772=CARTESIAN_POINT('Ctrl Pts',(66.4136332178208,9.56522001947607,-5.37600867189145));
#773=CARTESIAN_POINT('Ctrl Pts',(66.45,9.56042761152943,-5.18199512837216));
#774=CARTESIAN_POINT('Ctrl Pts',(66.45,9.56042761152943,-5.));
#775=CARTESIAN_POINT('',(66.45,0.439572388470573,-5.));
#776=CARTESIAN_POINT('Origin',(64.4,5.,-5.));
#777=CARTESIAN_POINT('Ctrl Pts',(66.45,0.439572388470572,-5.));
#778=CARTESIAN_POINT('Ctrl Pts',(66.45,0.439572388470572,-5.18199512837216));
#779=CARTESIAN_POINT('Ctrl Pts',(66.4136332178208,0.434779980523929,-5.37600867189145));
#780=CARTESIAN_POINT('Ctrl Pts',(66.2660816452424,0.415428528482611,-5.73265189504448));
#781=CARTESIAN_POINT('Ctrl Pts',(66.1549062277949,0.400881700761497,-5.89528611516516));
#782=CARTESIAN_POINT('Ctrl Pts',(65.8978651527694,0.367469004063257,-6.15316020501251));
#783=CARTESIAN_POINT('Ctrl Pts',(65.7344306049823,0.346322920851886,-6.26516040244062));
#784=CARTESIAN_POINT('Ctrl Pts',(65.3765901231144,0.300412929527817,-6.41357678917414));
#785=CARTESIAN_POINT('Ctrl Pts',(65.1821859455606,0.275658030033423,-6.45));
#786=CARTESIAN_POINT('Ctrl Pts',(64.8179001072834,0.229617462468072,-6.45));
#787=CARTESIAN_POINT('Ctrl Pts',(64.6235358965006,0.205236849729406,-6.41360751804059));
#788=CARTESIAN_POINT('Ctrl Pts',(64.4296437875781,0.181086125937259,-6.33321299008067));
#789=CARTESIAN_POINT('Ctrl Pts',(64.4147637178265,0.179233783671065,-6.3267484665097));
#790=CARTESIAN_POINT('Ctrl Pts',(64.4000000000225,0.177396968444016,-6.32003787825465));
#791=CARTESIAN_POINT('Origin',(65.,0.,-5.));
#792=CARTESIAN_POINT('',(63.55,0.,-5.));
#793=CARTESIAN_POINT('',(64.4,0.,-3.67996212175558));
#794=CARTESIAN_POINT('Ctrl Pts',(64.4,0.,-3.67996212175558));
#795=CARTESIAN_POINT('Ctrl Pts',(64.4155795901014,1.90794951496615E-18,
-3.67288069309745));
#796=CARTESIAN_POINT('Ctrl Pts',(64.4312891386346,7.28628685130558E-5,-3.66607312251069));
#797=CARTESIAN_POINT('Ctrl Pts',(64.6255384681461,0.00190324102898148,-3.58595237829226));
#798=CARTESIAN_POINT('Ctrl Pts',(64.8192378481882,0.0142811976601651,-3.55));
#799=CARTESIAN_POINT('Ctrl Pts',(65.1859456050916,0.0586064274000156,-3.55));
#800=CARTESIAN_POINT('Ctrl Pts',(65.3820651198872,0.0939380368291275,-3.58782341059554));
#801=CARTESIAN_POINT('Ctrl Pts',(65.7402152768052,0.179448279100846,-3.73813718969472));
#802=CARTESIAN_POINT('Ctrl Pts',(65.9024057152817,0.22913780078835,-3.85052460078992));
#803=CARTESIAN_POINT('Ctrl Pts',(66.155989737519,0.316610975316747,-4.10667804368138));
#804=CARTESIAN_POINT('Ctrl Pts',(66.2659589521452,0.360543058044835,-4.26738876304236));
#805=CARTESIAN_POINT('Ctrl Pts',(66.4130125733555,0.422430311617185,-4.62215567028346));
#806=CARTESIAN_POINT('Ctrl Pts',(66.45,0.439572388470573,-4.81639340140438));
#807=CARTESIAN_POINT('Ctrl Pts',(66.45,0.439572388470573,-5.));
#808=CARTESIAN_POINT('Origin',(65.,0.,-5.));
#809=CARTESIAN_POINT('',(64.4,10.,-3.67996212175558));
#810=CARTESIAN_POINT('Origin',(65.,10.,-5.));
#811=CARTESIAN_POINT('Ctrl Pts',(66.45,9.56042761152943,-5.));
#812=CARTESIAN_POINT('Ctrl Pts',(66.45,9.56042761152943,-4.81639340140438));
#813=CARTESIAN_POINT('Ctrl Pts',(66.4130125733555,9.57756968838282,-4.62215567028346));
#814=CARTESIAN_POINT('Ctrl Pts',(66.2659589521452,9.63945694195517,-4.26738876304236));
#815=CARTESIAN_POINT('Ctrl Pts',(66.155989737519,9.68338902468325,-4.10667804368138));
#816=CARTESIAN_POINT('Ctrl Pts',(65.9024057152817,9.77086219921165,-3.85052460078992));
#817=CARTESIAN_POINT('Ctrl Pts',(65.7402152768052,9.82055172089915,-3.73813718969472));
#818=CARTESIAN_POINT('Ctrl Pts',(65.3820651198872,9.90606196317087,-3.58782341059554));
#819=CARTESIAN_POINT('Ctrl Pts',(65.1859456050916,9.94139357259998,-3.55));
#820=CARTESIAN_POINT('Ctrl Pts',(64.8192378481882,9.98571880233984,-3.55));
#821=CARTESIAN_POINT('Ctrl Pts',(64.6255384681461,9.99809675897102,-3.58595237829226));
#822=CARTESIAN_POINT('Ctrl Pts',(64.4312891386346,9.99992713713149,-3.66607312251069));
#823=CARTESIAN_POINT('Ctrl Pts',(64.4155795901014,10.,-3.67288069309746));
#824=CARTESIAN_POINT('Ctrl Pts',(64.4,10.,-3.67996212175558));
#825=CARTESIAN_POINT('Origin',(64.4,5.,66.6875));
#826=CARTESIAN_POINT('',(64.4,10.,85.8));
#827=CARTESIAN_POINT('',(64.4,10.,66.6875));
#828=CARTESIAN_POINT('',(65.85,9.78513322698543,87.25));
#829=CARTESIAN_POINT('Ctrl Pts',(64.4,10.,85.8));
#830=CARTESIAN_POINT('Ctrl Pts',(64.5831825510291,10.,85.8));
#831=CARTESIAN_POINT('Ctrl Pts',(64.7778695302204,9.98893456480912,85.8368235185393));
#832=CARTESIAN_POINT('Ctrl Pts',(65.1348241410591,9.94896827200179,85.9851337644947));
#833=CARTESIAN_POINT('Ctrl Pts',(65.2971736823991,9.92059118794981,86.0965640169581));
#834=CARTESIAN_POINT('Ctrl Pts',(65.5534691267857,9.86689388587204,86.3528594613447));
#835=CARTESIAN_POINT('Ctrl Pts',(65.6648736743367,9.83797651904649,86.5151954619221));
#836=CARTESIAN_POINT('Ctrl Pts',(65.813164991352,9.79675798197006,86.8721011161918));
#837=CARTESIAN_POINT('Ctrl Pts',(65.85,9.78513322698543,87.0667700650559));
#838=CARTESIAN_POINT('Ctrl Pts',(65.85,9.78513322698543,87.25));
#839=CARTESIAN_POINT('',(65.85,0.21486677301457,87.25));
#840=CARTESIAN_POINT('Origin',(64.4,5.,87.25));
#841=CARTESIAN_POINT('',(64.4,0.,85.8));
#842=CARTESIAN_POINT('Ctrl Pts',(65.85,0.21486677301457,87.25));
#843=CARTESIAN_POINT('Ctrl Pts',(65.85,0.21486677301457,87.0667700650559));
#844=CARTESIAN_POINT('Ctrl Pts',(65.813164991352,0.20324201802994,86.8721011161918));
#845=CARTESIAN_POINT('Ctrl Pts',(65.6648736743367,0.162023480953513,86.5151954619221));
#846=CARTESIAN_POINT('Ctrl Pts',(65.5534691267857,0.133106114127959,86.3528594613447));
#847=CARTESIAN_POINT('Ctrl Pts',(65.2971736823991,0.0794088120501937,86.0965640169581));
#848=CARTESIAN_POINT('Ctrl Pts',(65.1348241410591,0.0510317279982087,85.9851337644947));
#849=CARTESIAN_POINT('Ctrl Pts',(64.7778695302204,0.0110654351908762,85.8368235185393));
#850=CARTESIAN_POINT('Ctrl Pts',(64.5831825510291,1.12083678506741E-16,
85.8));
#851=CARTESIAN_POINT('Ctrl Pts',(64.4,1.01915004213637E-16,85.8));
#852=CARTESIAN_POINT('',(64.4,0.,66.6875));
#853=CARTESIAN_POINT('Origin',(-5.,5.,-5.));
#854=CARTESIAN_POINT('',(-6.45,0.21486677301457,-5.));
#855=CARTESIAN_POINT('Origin',(-5.,0.21486677301457,-5.));
#856=CARTESIAN_POINT('',(-6.45,9.78513322698543,-5.));
#857=CARTESIAN_POINT('Origin',(-5.,5.,-5.));
#858=CARTESIAN_POINT('Origin',(-5.,9.78513322698543,-5.));
#859=CARTESIAN_POINT('Origin',(-5.,0.,-5.));
#860=CARTESIAN_POINT('',(-6.45,0.,-5.));
#861=CARTESIAN_POINT('',(-5.,0.,-3.55));
#862=CARTESIAN_POINT('Origin',(-5.,0.,-5.));
#863=CARTESIAN_POINT('Ctrl Pts',(-6.45,0.21486677301457,-5.));
#864=CARTESIAN_POINT('Ctrl Pts',(-6.45,0.21486677301457,-4.81677006505588));
#865=CARTESIAN_POINT('Ctrl Pts',(-6.41316499135199,0.203242018029941,-4.62210111619179));
#866=CARTESIAN_POINT('Ctrl Pts',(-6.26487367433666,0.162023480953513,-4.26519546192213));
#867=CARTESIAN_POINT('Ctrl Pts',(-6.15346912678569,0.133106114127958,-4.1028594613447));
#868=CARTESIAN_POINT('Ctrl Pts',(-5.89717368239909,0.0794088120501935,-3.84656401695811));
#869=CARTESIAN_POINT('Ctrl Pts',(-5.73482414105916,0.0510317279982101,-3.73513376449469));
#870=CARTESIAN_POINT('Ctrl Pts',(-5.37786953022041,0.0110654351908764,-3.58682351853935));
#871=CARTESIAN_POINT('Ctrl Pts',(-5.1831825510291,1.08120634045104E-16,
-3.55));
#872=CARTESIAN_POINT('Ctrl Pts',(-5.,9.54097911787244E-17,-3.55));
#873=CARTESIAN_POINT('',(-5.,10.,-3.55));
#874=CARTESIAN_POINT('Ctrl Pts',(-5.,10.,-3.55));
#875=CARTESIAN_POINT('Ctrl Pts',(-5.1831825510291,10.,-3.55));
#876=CARTESIAN_POINT('Ctrl Pts',(-5.37786953022041,9.98893456480912,-3.58682351853935));
#877=CARTESIAN_POINT('Ctrl Pts',(-5.73482414105916,9.94896827200179,-3.73513376449469));
#878=CARTESIAN_POINT('Ctrl Pts',(-5.89717368239909,9.9205911879498,-3.84656401695811));
#879=CARTESIAN_POINT('Ctrl Pts',(-6.15346912678568,9.86689388587204,-4.1028594613447));
#880=CARTESIAN_POINT('Ctrl Pts',(-6.26487367433666,9.83797651904649,-4.26519546192212));
#881=CARTESIAN_POINT('Ctrl Pts',(-6.41316499135199,9.79675798197006,-4.62210111619179));
#882=CARTESIAN_POINT('Ctrl Pts',(-6.45,9.78513322698543,-4.81677006505588));
#883=CARTESIAN_POINT('Ctrl Pts',(-6.45,9.78513322698543,-5.));
#884=CARTESIAN_POINT('Origin',(-5.,10.,-5.));
#885=CARTESIAN_POINT('Origin',(-5.,5.,15.5625));
#886=CARTESIAN_POINT('',(-5.,0.,85.8));
#887=CARTESIAN_POINT('',(-5.,0.,15.5625));
#888=CARTESIAN_POINT('',(-6.45,0.214866773014569,87.25));
#889=CARTESIAN_POINT('Ctrl Pts',(-5.,1.30104260698261E-17,85.8));
#890=CARTESIAN_POINT('Ctrl Pts',(-5.18318255102909,1.4281510356464E-17,
85.8));
#891=CARTESIAN_POINT('Ctrl Pts',(-5.3778695302204,0.0110654351908759,85.8368235185393));
#892=CARTESIAN_POINT('Ctrl Pts',(-5.73482414105914,0.0510317279982088,85.9851337644947));
#893=CARTESIAN_POINT('Ctrl Pts',(-5.89717368239909,0.079408812050192,86.0965640169581));
#894=CARTESIAN_POINT('Ctrl Pts',(-6.15346912678568,0.133106114127957,86.3528594613447));
#895=CARTESIAN_POINT('Ctrl Pts',(-6.26487367433665,0.162023480953509,86.5151954619221));
#896=CARTESIAN_POINT('Ctrl Pts',(-6.41316499135199,0.20324201802994,86.8721011161918));
#897=CARTESIAN_POINT('Ctrl Pts',(-6.45,0.214866773014568,87.0667700650559));
#898=CARTESIAN_POINT('Ctrl Pts',(-6.45,0.214866773014568,87.25));
#899=CARTESIAN_POINT('',(-6.45,9.78513322698543,87.25));
#900=CARTESIAN_POINT('Origin',(-5.,5.,87.25));
#901=CARTESIAN_POINT('',(-5.,10.,85.8));
#902=CARTESIAN_POINT('Ctrl Pts',(-6.45,9.78513322698543,87.25));
#903=CARTESIAN_POINT('Ctrl Pts',(-6.45,9.78513322698543,87.0667700650559));
#904=CARTESIAN_POINT('Ctrl Pts',(-6.41316499135199,9.79675798197006,86.8721011161918));
#905=CARTESIAN_POINT('Ctrl Pts',(-6.26487367433666,9.83797651904649,86.5151954619221));
#906=CARTESIAN_POINT('Ctrl Pts',(-6.15346912678568,9.86689388587204,86.3528594613447));
#907=CARTESIAN_POINT('Ctrl Pts',(-5.89717368239909,9.92059118794981,86.0965640169581));
#908=CARTESIAN_POINT('Ctrl Pts',(-5.73482414105914,9.94896827200179,85.9851337644947));
#909=CARTESIAN_POINT('Ctrl Pts',(-5.3778695302204,9.98893456480912,85.8368235185393));
#910=CARTESIAN_POINT('Ctrl Pts',(-5.18318255102909,10.,85.8));
#911=CARTESIAN_POINT('Ctrl Pts',(-5.,10.,85.8));
#912=CARTESIAN_POINT('',(-5.,10.,15.5625));
#913=CARTESIAN_POINT('Origin',(-5.,5.,87.25));
#914=CARTESIAN_POINT('',(-5.,9.78513322698543,88.7));
#915=CARTESIAN_POINT('Origin',(-5.,9.78513322698543,87.25));
#916=CARTESIAN_POINT('',(-5.,0.214866773014569,88.7));
#917=CARTESIAN_POINT('Origin',(-5.,0.214866773014568,87.25));
#918=CARTESIAN_POINT('Origin',(-5.,5.,87.25));
#919=CARTESIAN_POINT('Origin',(-5.,0.,87.25));
#920=CARTESIAN_POINT('',(-3.55,10.,87.25));
#921=CARTESIAN_POINT('Ctrl Pts',(-3.55,10.,87.25));
#922=CARTESIAN_POINT('Ctrl Pts',(-3.55,10.,87.4331825510291));
#923=CARTESIAN_POINT('Ctrl Pts',(-3.58682351853935,9.98893456480912,87.6278695302204));
#924=CARTESIAN_POINT('Ctrl Pts',(-3.7351337644947,9.94896827200179,87.9848241410592));
#925=CARTESIAN_POINT('Ctrl Pts',(-3.84656401695811,9.92059118794981,88.1471736823991));
#926=CARTESIAN_POINT('Ctrl Pts',(-4.1028594613447,9.86689388587204,88.4034691267857));
#927=CARTESIAN_POINT('Ctrl Pts',(-4.26519546192213,9.83797651904648,88.5148736743367));
#928=CARTESIAN_POINT('Ctrl Pts',(-4.62210111619179,9.79675798197006,88.663164991352));
#929=CARTESIAN_POINT('Ctrl Pts',(-4.81677006505588,9.78513322698543,88.7));
#930=CARTESIAN_POINT('Ctrl Pts',(-5.,9.78513322698543,88.7));
#931=CARTESIAN_POINT('Origin',(-5.,10.,87.25));
#932=CARTESIAN_POINT('',(-6.45,0.,87.25));
#933=CARTESIAN_POINT('',(-3.55,0.,87.25));
#934=CARTESIAN_POINT('Origin',(-5.,0.,87.25));
#935=CARTESIAN_POINT('Ctrl Pts',(-5.,0.214866773014569,88.7));
#936=CARTESIAN_POINT('Ctrl Pts',(-4.81677006505588,0.214866773014569,88.7));
#937=CARTESIAN_POINT('Ctrl Pts',(-4.62210111619179,0.203242018029943,88.663164991352));
#938=CARTESIAN_POINT('Ctrl Pts',(-4.26519546192213,0.162023480953517,88.5148736743367));
#939=CARTESIAN_POINT('Ctrl Pts',(-4.1028594613447,0.133106114127959,88.4034691267857));
#940=CARTESIAN_POINT('Ctrl Pts',(-3.84656401695811,0.0794088120501939,88.1471736823991));
#941=CARTESIAN_POINT('Ctrl Pts',(-3.7351337644947,0.0510317279982111,87.9848241410592));
#942=CARTESIAN_POINT('Ctrl Pts',(-3.58682351853935,0.0110654351908786,87.6278695302204));
#943=CARTESIAN_POINT('Ctrl Pts',(-3.55,-2.34785406111756E-16,87.4331825510291));
#944=CARTESIAN_POINT('Ctrl Pts',(-3.55,-2.23345647532014E-16,87.25));
#945=CARTESIAN_POINT('Origin',(64.4,5.,87.25));
#946=CARTESIAN_POINT('',(64.4,0.21486677301457,88.7));
#947=CARTESIAN_POINT('Origin',(64.4,0.214866773014571,87.25));
#948=CARTESIAN_POINT('',(64.4,9.78513322698543,88.7));
#949=CARTESIAN_POINT('Origin',(64.4,9.78513322698543,87.25));
#950=CARTESIAN_POINT('Origin',(64.4,5.,87.25));
#951=CARTESIAN_POINT('Origin',(64.4,0.,87.25));
#952=CARTESIAN_POINT('',(62.95,10.,87.25));
#953=CARTESIAN_POINT('Origin',(64.4,10.,87.25));
#954=CARTESIAN_POINT('',(62.95,0.,87.25));
#955=CARTESIAN_POINT('',(62.95,0.,87.25));
#956=CARTESIAN_POINT('Origin',(64.4,0.,87.25));
#957=CARTESIAN_POINT('Ctrl Pts',(62.95,1.95156391047391E-16,87.25));
#958=CARTESIAN_POINT('Ctrl Pts',(62.95,1.87529885327563E-16,87.4331825510291));
#959=CARTESIAN_POINT('Ctrl Pts',(62.9868235185393,0.0110654351908787,87.6278695302204));
#960=CARTESIAN_POINT('Ctrl Pts',(63.1351337644947,0.051031727998211,87.9848241410592));
#961=CARTESIAN_POINT('Ctrl Pts',(63.2465640169581,0.0794088120501938,88.1471736823991));
#962=CARTESIAN_POINT('Ctrl Pts',(63.5028594613447,0.133106114127959,88.4034691267857));
#963=CARTESIAN_POINT('Ctrl Pts',(63.6651954619221,0.16202348095351,88.5148736743366));
#964=CARTESIAN_POINT('Ctrl Pts',(64.0221011161918,0.203242018029939,88.663164991352));
#965=CARTESIAN_POINT('Ctrl Pts',(64.2167700650559,0.21486677301457,88.7));
#966=CARTESIAN_POINT('Ctrl Pts',(64.4,0.21486677301457,88.7));
#967=CARTESIAN_POINT('Ctrl Pts',(64.4,9.78513322698543,88.7));
#968=CARTESIAN_POINT('Ctrl Pts',(64.2167700650559,9.78513322698543,88.7));
#969=CARTESIAN_POINT('Ctrl Pts',(64.0221011161918,9.79675798197006,88.663164991352));
#970=CARTESIAN_POINT('Ctrl Pts',(63.6651954619221,9.83797651904648,88.5148736743367));
#971=CARTESIAN_POINT('Ctrl Pts',(63.5028594613447,9.86689388587204,88.4034691267857));
#972=CARTESIAN_POINT('Ctrl Pts',(63.2465640169581,9.92059118794981,88.1471736823991));
#973=CARTESIAN_POINT('Ctrl Pts',(63.1351337644947,9.94896827200179,87.9848241410592));
#974=CARTESIAN_POINT('Ctrl Pts',(62.9868235185393,9.98893456480912,87.6278695302204));
#975=CARTESIAN_POINT('Ctrl Pts',(62.95,10.,87.4331825510291));
#976=CARTESIAN_POINT('Ctrl Pts',(62.95,10.,87.25));
#977=CARTESIAN_POINT('Origin',(29.7,10.,41.125));
#978=CARTESIAN_POINT('',(9.85,10.,87.25));
#979=CARTESIAN_POINT('',(59.4,10.,82.25));
#980=CARTESIAN_POINT('',(59.4,10.,1.23259516440783E-31));
#981=CARTESIAN_POINT('',(0.,10.,82.25));
#982=CARTESIAN_POINT('',(59.4,10.,82.25));
#983=CARTESIAN_POINT('',(0.,10.,82.25));
#984=CARTESIAN_POINT('Origin',(9.85,5.,87.25));
#985=CARTESIAN_POINT('',(9.85,0.,87.25));
#986=CARTESIAN_POINT('Origin',(29.7,3.,41.125));
#987=CARTESIAN_POINT('',(59.4,3.,82.25));
#988=CARTESIAN_POINT('',(0.,3.,82.25));
#989=CARTESIAN_POINT('',(44.55,3.,82.25));
#990=CARTESIAN_POINT('',(59.4,3.,20.5625));
#991=CARTESIAN_POINT('',(0.,3.,61.6875));
#992=CARTESIAN_POINT('Origin',(59.4,0.,1.23259516440783E-31));
#993=CARTESIAN_POINT('',(59.4,0.,82.25));
#994=CARTESIAN_POINT('Origin',(0.,0.,82.25));
#995=CARTESIAN_POINT('',(0.,0.,82.25));
#996=CARTESIAN_POINT('Origin',(59.4,0.,82.25));
#997=CARTESIAN_POINT('Origin',(29.7,0.,41.125));
#998=UNCERTAINTY_MEASURE_WITH_UNIT(LENGTH_MEASURE(0.01),#1002,
'DISTANCE_ACCURACY_VALUE',
'Maximum model space distance between geometric entities at asserted c
onnectivities');
#999=UNCERTAINTY_MEASURE_WITH_UNIT(LENGTH_MEASURE(0.01),#1002,
'DISTANCE_ACCURACY_VALUE',
'Maximum model space distance between geometric entities at asserted c
onnectivities');
#1000=(
GEOMETRIC_REPRESENTATION_CONTEXT(3)
GLOBAL_UNCERTAINTY_ASSIGNED_CONTEXT((#998))
GLOBAL_UNIT_ASSIGNED_CONTEXT((#1002,#1004,#1005))
REPRESENTATION_CONTEXT('','3D')
);
#1001=(
GEOMETRIC_REPRESENTATION_CONTEXT(3)
GLOBAL_UNCERTAINTY_ASSIGNED_CONTEXT((#999))
GLOBAL_UNIT_ASSIGNED_CONTEXT((#1002,#1004,#1005))
REPRESENTATION_CONTEXT('','3D')
);
#1002=(
LENGTH_UNIT()
NAMED_UNIT(*)
SI_UNIT(.MILLI.,.METRE.)
);
#1003=(
LENGTH_UNIT()
NAMED_UNIT(*)
SI_UNIT($,.METRE.)
);
#1004=(
NAMED_UNIT(*)
PLANE_ANGLE_UNIT()
SI_UNIT($,.RADIAN.)
);
#1005=(
NAMED_UNIT(*)
SI_UNIT($,.STERADIAN.)
SOLID_ANGLE_UNIT()
);
#1006=SHAPE_DEFINITION_REPRESENTATION(#1007,#1008);
#1007=PRODUCT_DEFINITION_SHAPE('',$,#1010);
#1008=SHAPE_REPRESENTATION('',(#502),#1000);
#1009=PRODUCT_DEFINITION_CONTEXT('part definition',#1014,'design');
#1010=PRODUCT_DEFINITION('2026-08-13-21-46-56-362','FusionComponent',#1011,
#1009);
#1011=PRODUCT_DEFINITION_FORMATION('',$,#1016);
#1012=PRODUCT_RELATED_PRODUCT_CATEGORY('FusionComponent',
'FusionComponent',(#1016));
#1013=APPLICATION_PROTOCOL_DEFINITION('international standard',
'automotive_design',2009,#1014);
#1014=APPLICATION_CONTEXT(
'Core Data for Automotive Mechanical Design Process');
#1015=PRODUCT_CONTEXT('part definition',#1014,'mechanical');
#1016=PRODUCT('2026-08-13-21-46-56-362','FusionComponent',$,(#1015));
#1017=PRESENTATION_STYLE_ASSIGNMENT((#1018));
#1018=SURFACE_STYLE_USAGE(.BOTH.,#1019);
#1019=SURFACE_SIDE_STYLE('',(#1020));
#1020=SURFACE_STYLE_FILL_AREA(#1021);
#1021=FILL_AREA_STYLE('Steel - Satin',(#1022));
#1022=FILL_AREA_STYLE_COLOUR('Steel - Satin',#1023);
#1023=COLOUR_RGB('Steel - Satin',0.627450980392157,0.627450980392157,0.627450980392157);
ENDSEC;
END-ISO-10303-21;
